<svg width="20" height="20" viewBox="0 0 20 20" fill="none" xmlns="http://www.w3.org/2000/svg">
<path fill-rule="evenodd" clip-rule="evenodd" d="M10 0C4.47715 0 0 4.47715 0 10C0 15.5228 4.47715 20 10 20C15.5228 20 20 15.5228 20 10C20 4.47715 15.5228 0 10 0ZM7.80137 4.69889C8.37026 4.673 8.55204 4.66667 10.0005 4.66667H9.99883C11.4477 4.66667 11.6289 4.673 12.1977 4.69889C12.7655 4.72489 13.1533 4.81478 13.4933 4.94667C13.8444 5.08278 14.1411 5.26501 14.4378 5.56168C14.7344 5.85812 14.9167 6.15568 15.0533 6.50646C15.1844 6.84558 15.2744 7.23314 15.3011 7.80092C15.3267 8.36982 15.3333 8.5516 15.3333 10.0001C15.3333 11.4485 15.3267 11.6299 15.3011 12.1987C15.2744 12.7663 15.1844 13.154 15.0533 13.4932C14.9167 13.8439 14.7344 14.1414 14.4378 14.4379C14.1414 14.7345 13.8443 14.9172 13.4936 15.0534C13.1543 15.1853 12.7663 15.2752 12.1985 15.3012C11.6296 15.3271 11.4484 15.3334 9.99983 15.3334C8.55149 15.3334 8.36982 15.3271 7.80092 15.3012C7.23325 15.2752 6.84558 15.1853 6.50624 15.0534C6.15568 14.9172 5.85812 14.7345 5.56179 14.4379C5.26523 14.1414 5.083 13.8439 4.94667 13.4931C4.81489 13.154 4.725 12.7664 4.69889 12.1986C4.67311 11.6297 4.66667 11.4485 4.66667 10.0001C4.66667 8.5516 4.67333 8.36971 4.69878 7.80081C4.72433 7.23325 4.81433 6.84558 4.94656 6.50635C5.08323 6.15568 5.26545 5.85812 5.56212 5.56168C5.85857 5.26512 6.15613 5.08289 6.50691 4.94667C6.84602 4.81478 7.23358 4.72489 7.80137 4.69889Z" fill="#253659"/>
<path fill-rule="evenodd" clip-rule="evenodd" d="M9.52205 5.6278C9.61495 5.62765 9.71489 5.6277 9.82274 5.62775L10.0005 5.6278C11.4245 5.6278 11.5933 5.63291 12.1556 5.65847C12.6756 5.68224 12.9579 5.76913 13.1459 5.84213C13.3948 5.9388 13.5722 6.05436 13.7588 6.24103C13.9454 6.4277 14.061 6.60548 14.1579 6.85437C14.2309 7.04215 14.3179 7.32437 14.3415 7.84438C14.3671 8.40661 14.3727 8.5755 14.3727 9.99884C14.3727 11.4222 14.3671 11.5911 14.3415 12.1533C14.3178 12.6733 14.2309 12.9555 14.1579 13.1433C14.0612 13.3922 13.9454 13.5694 13.7588 13.756C13.5721 13.9427 13.3949 14.0582 13.1459 14.1549C12.9581 14.2282 12.6756 14.3149 12.1556 14.3387C11.5934 14.3642 11.4245 14.3698 10.0005 14.3698C8.57638 14.3698 8.4076 14.3642 7.84537 14.3387C7.32536 14.3147 7.04314 14.2278 6.85503 14.1548C6.60613 14.0581 6.42835 13.9426 6.24169 13.7559C6.05502 13.5692 5.93946 13.3919 5.84257 13.1429C5.76957 12.9551 5.68257 12.6729 5.6589 12.1529C5.63335 11.5906 5.62823 11.4217 5.62823 9.99751C5.62823 8.57327 5.63335 8.40527 5.6589 7.84304C5.68268 7.32304 5.76957 7.04081 5.84257 6.85281C5.93924 6.60392 6.05502 6.42614 6.24169 6.23947C6.42835 6.0528 6.60613 5.93725 6.85503 5.84036C7.04303 5.76702 7.32536 5.68035 7.84537 5.65647C8.33737 5.63424 8.52804 5.62758 9.52205 5.62646V5.6278ZM12.8474 6.51341C12.4941 6.51341 12.2074 6.79974 12.2074 7.15319C12.2074 7.50653 12.4941 7.7932 12.8474 7.7932C13.2008 7.7932 13.4874 7.50653 13.4874 7.15319C13.4874 6.79985 13.2008 6.51318 12.8474 6.51318V6.51341ZM7.26162 10.0001C7.26162 8.48753 8.4879 7.26121 10.0004 7.26115C11.513 7.26115 12.739 8.4875 12.739 10.0001C12.739 11.5126 11.5131 12.7384 10.0005 12.7384C8.48796 12.7384 7.26162 11.5126 7.26162 10.0001Z" fill="#253659"/>
<path d="M10.0005 8.22229C10.9822 8.22229 11.7782 9.01819 11.7782 10.0001C11.7782 10.9819 10.9822 11.7779 10.0005 11.7779C9.01855 11.7779 8.22266 10.9819 8.22266 10.0001C8.22266 9.01819 9.01855 8.22229 10.0005 8.22229Z" fill="#253659"/>
</svg>
