<svg width="70" height="24" viewBox="0 0 70 24" fill="none" xmlns="http://www.w3.org/2000/svg">
<rect x="0.5" y="0.5" width="69" height="23" rx="11.5" stroke="#253659"/>
<rect x="2.5" y="2.5" width="33" height="19" rx="9.5" fill="#253659" stroke="#253659"/>
<path d="M52.3652 16H51.1934L48.0703 11.8457L47.1738 12.6426V16H46.1777V7.43359H47.1738V11.6816L51.0586 7.43359H52.2363L48.791 11.1543L52.3652 16ZM58.6582 9.57812V10.1934L57.4688 10.334C57.5781 10.4707 57.6758 10.6504 57.7617 10.873C57.8477 11.0918 57.8906 11.3398 57.8906 11.6172C57.8906 12.2461 57.6758 12.748 57.2461 13.123C56.8164 13.498 56.2266 13.6855 55.4766 13.6855C55.2852 13.6855 55.1055 13.6699 54.9375 13.6387C54.5234 13.8574 54.3164 14.1328 54.3164 14.4648C54.3164 14.6406 54.3887 14.7715 54.5332 14.8574C54.6777 14.9395 54.9258 14.9805 55.2773 14.9805H56.4141C57.1094 14.9805 57.6426 15.127 58.0137 15.4199C58.3887 15.7129 58.5762 16.1387 58.5762 16.6973C58.5762 17.4082 58.291 17.9492 57.7207 18.3203C57.1504 18.6953 56.3184 18.8828 55.2246 18.8828C54.3848 18.8828 53.7363 18.7266 53.2793 18.4141C52.8262 18.1016 52.5996 17.6602 52.5996 17.0898C52.5996 16.6992 52.7246 16.3613 52.9746 16.0762C53.2246 15.791 53.5762 15.5977 54.0293 15.4961C53.8652 15.4219 53.7266 15.3066 53.6133 15.1504C53.5039 14.9941 53.4492 14.8125 53.4492 14.6055C53.4492 14.3711 53.5117 14.166 53.6367 13.9902C53.7617 13.8145 53.959 13.6445 54.2285 13.4805C53.8965 13.3438 53.625 13.1113 53.4141 12.7832C53.207 12.4551 53.1035 12.0801 53.1035 11.6582C53.1035 10.9551 53.3145 10.4141 53.7363 10.0352C54.1582 9.65234 54.7559 9.46094 55.5293 9.46094C55.8652 9.46094 56.168 9.5 56.4375 9.57812H58.6582ZM53.5371 17.0781C53.5371 17.4258 53.6836 17.6895 53.9766 17.8691C54.2695 18.0488 54.6895 18.1387 55.2363 18.1387C56.0527 18.1387 56.6562 18.0156 57.0469 17.7695C57.4414 17.5273 57.6387 17.1973 57.6387 16.7793C57.6387 16.4316 57.5312 16.1895 57.3164 16.0527C57.1016 15.9199 56.6973 15.8535 56.1035 15.8535H54.9375C54.4961 15.8535 54.1523 15.959 53.9062 16.1699C53.6602 16.3809 53.5371 16.6836 53.5371 17.0781ZM54.0645 11.6348C54.0645 12.084 54.1914 12.4238 54.4453 12.6543C54.6992 12.8848 55.0527 13 55.5059 13C56.4551 13 56.9297 12.5391 56.9297 11.6172C56.9297 10.6523 56.4492 10.1699 55.4883 10.1699C55.0312 10.1699 54.6797 10.293 54.4336 10.5391C54.1875 10.7852 54.0645 11.1504 54.0645 11.6348Z" fill="#253659"/>
<path d="M13.1738 12.4375V16H12.1777V7.43359H14.5273C15.5781 7.43359 16.3535 7.63477 16.8535 8.03711C17.3574 8.43945 17.6094 9.04492 17.6094 9.85352C17.6094 10.9863 17.0352 11.752 15.8867 12.1504L18.2129 16H17.0352L14.9609 12.4375H13.1738ZM13.1738 11.582H14.5391C15.2422 11.582 15.7578 11.4434 16.0859 11.166C16.4141 10.8848 16.5781 10.4648 16.5781 9.90625C16.5781 9.33984 16.4102 8.93164 16.0742 8.68164C15.7422 8.43164 15.207 8.30664 14.4688 8.30664H13.1738V11.582ZM20.3633 9.57812V13.7441C20.3633 14.2676 20.4824 14.6582 20.7207 14.916C20.959 15.1738 21.332 15.3027 21.8398 15.3027C22.5117 15.3027 23.002 15.1191 23.3105 14.752C23.623 14.3848 23.7793 13.7852 23.7793 12.9531V9.57812H24.752V16H23.9492L23.8086 15.1387H23.7559C23.5566 15.4551 23.2793 15.6973 22.9238 15.8652C22.5723 16.0332 22.1699 16.1172 21.7168 16.1172C20.9355 16.1172 20.3496 15.9316 19.959 15.5605C19.5723 15.1895 19.3789 14.5957 19.3789 13.7793V9.57812H20.3633Z" fill="white"/>
</svg>
