<svg width="20" height="20" viewBox="0 0 20 20" fill="none" xmlns="http://www.w3.org/2000/svg">
<path fill-rule="evenodd" clip-rule="evenodd" d="M0 10C0 15.5228 4.47715 20 10 20C15.5228 20 20 15.5228 20 10C20 4.47715 15.5228 0 10 0C4.47715 0 0 4.47715 0 10ZM8.1666 14.5833L8.33674 12.0342L8.3366 12.0341L12.9736 7.84954C13.1772 7.66892 12.9292 7.58084 12.659 7.74467L6.9363 11.3551L4.46438 10.5836C3.93056 10.4201 3.92673 10.0533 4.58423 9.78956L14.2167 6.07531C14.6567 5.87558 15.0813 6.18098 14.9134 6.85433L13.2729 14.5846C13.1584 15.1339 12.8265 15.2653 12.3666 15.0115L9.86773 13.1653L8.6666 14.3333C8.66281 14.337 8.65904 14.3406 8.6553 14.3443C8.52096 14.4751 8.40981 14.5833 8.1666 14.5833Z" fill="#253659"/>
</svg>
