<svg width="20" height="20" viewBox="0 0 20 20" fill="none" xmlns="http://www.w3.org/2000/svg">
<path fill-rule="evenodd" clip-rule="evenodd" d="M10 0C4.47715 0 0 4.47715 0 10C0 15.5228 4.47715 20 10 20C15.5228 20 20 15.5228 20 10C20 4.47715 15.5228 0 10 0ZM14.1673 6.56222C14.6263 6.68816 14.9878 7.05926 15.1104 7.53051C15.3333 8.3846 15.3333 10.1667 15.3333 10.1667C15.3333 10.1667 15.3333 11.9487 15.1104 12.8028C14.9878 13.2741 14.6263 13.6452 14.1673 13.7712C13.3356 14 10 14 10 14C10 14 6.66442 14 5.83261 13.7712C5.37364 13.6452 5.01218 13.2741 4.88951 12.8028C4.66667 11.9487 4.66667 10.1667 4.66667 10.1667C4.66667 10.1667 4.66667 8.3846 4.88951 7.53051C5.01218 7.05926 5.37364 6.68816 5.83261 6.56222C6.66442 6.33333 10 6.33333 10 6.33333C10 6.33333 13.3356 6.33333 14.1673 6.56222Z" fill="#253659"/>
<path d="M9 12V8.66663L11.6667 10.3334L9 12Z" fill="#253659"/>
</svg>
